<?xml version="1.0" standalone="no"?>
<!DOCTYPE svg PUBLIC "-//W3C//DTD SVG 20010904//EN"
 "http://www.w3.org/TR/2001/REC-SVG-20010904/DTD/svg10.dtd">
<svg version="1.0" xmlns="http://www.w3.org/2000/svg"
 width="700.000000pt" height="700.000000pt" viewBox="0 0 700.000000 700.000000"
 preserveAspectRatio="xMidYMid meet">
<metadata>
Created by potrace 1.14, written by Peter Selinger 2001-2017
</metadata>
<g transform="translate(0.000000,700.000000) scale(0.100000,-0.100000)"
fill="#000000" stroke="none">
<path d="M1658 6409 c-170 -25 -350 -156 -426 -312 -67 -136 -63 67 -62 -2591
0 -2672 -5 -2471 67 -2609 71 -135 188 -234 338 -285 l80 -27 1845 0 1845 0
80 27 c150 51 267 150 338 285 72 138 67 -62 67 2606 1 2183 -1 2412 -15 2469
-27 105 -73 186 -150 264 -79 80 -132 114 -238 153 l-72 26 -1820 1 c-1001 1
-1845 -2 -1877 -7z m3669 -454 c63 -37 63 -40 63 -492 0 -382 -1 -410 -19
-439 -42 -69 105 -64 -1870 -64 -1961 0 -1830 -4 -1871 62 -19 32 -20 49 -20
440 0 229 4 417 9 431 13 34 49 66 86 76 17 5 798 9 1810 8 1747 -2 1781 -2
1812 -22z m-3077 -1741 c73 -29 80 -53 80 -273 0 -213 -5 -236 -63 -271 -30
-19 -52 -20 -306 -20 l-273 0 -38 38 c-47 47 -54 89 -49 294 4 121 7 148 24
178 38 66 59 70 337 70 204 0 255 -3 288 -16z m1027 -1 c69 -32 74 -52 71
-285 l-3 -208 -33 -32 -32 -33 -291 0 -291 0 -33 36 c-28 31 -34 47 -40 104
-4 37 -6 127 -3 200 5 150 18 187 78 217 31 16 67 18 288 18 217 0 259 -2 289
-17z m1023 -1 c60 -30 73 -67 78 -217 3 -73 1 -163 -3 -200 -6 -57 -12 -73
-40 -104 l-33 -36 -291 0 -291 0 -32 33 -33 32 -3 208 c-4 311 -15 301 358
302 223 0 259 -2 290 -18z m-2039 -877 c16 -9 39 -30 49 -48 18 -29 20 -51 20
-226 0 -296 6 -291 -368 -291 -278 0 -299 4 -337 70 -17 30 -20 57 -24 178 -5
205 2 247 49 294 l38 38 271 0 c226 0 277 -3 302 -15z m1051 -23 l33 -32 3
-208 c4 -311 14 -302 -360 -302 -228 0 -257 2 -288 19 -61 32 -73 66 -78 216
-6 183 3 257 36 296 14 17 35 35 46 40 12 4 146 7 298 6 l278 -2 32 -33z
m1023 -3 c28 -31 34 -47 40 -104 4 -37 6 -127 3 -200 -5 -150 -17 -184 -78
-216 -31 -17 -60 -19 -288 -19 -374 0 -364 -8 -360 302 3 205 3 207 28 233 14
15 34 31 45 36 11 4 145 7 298 6 l279 -2 33 -36z m986 26 c16 -9 39 -30 49
-48 18 -29 20 -51 20 -225 0 -223 -5 -242 -73 -273 -37 -16 -68 -19 -277 -19
-129 0 -251 5 -271 10 -19 5 -48 24 -65 41 l-29 30 -3 194 c-4 218 3 250 60
285 31 19 50 20 296 20 218 0 268 -3 293 -15z m-3071 -871 c73 -29 80 -53 80
-273 0 -213 -5 -236 -63 -271 -30 -19 -52 -20 -306 -20 l-273 0 -38 38 c-47
47 -54 89 -49 294 4 121 7 148 24 178 38 66 59 70 337 70 204 0 255 -3 288
-16z m1027 -1 c69 -32 74 -52 71 -285 l-3 -208 -33 -32 -32 -33 -291 0 -291 0
-33 36 c-28 31 -34 47 -40 104 -4 37 -6 127 -3 200 5 150 18 187 78 217 31 16
67 18 288 18 217 0 259 -2 289 -17z m1023 -1 c60 -30 73 -67 78 -217 3 -73 1
-163 -3 -200 -6 -57 -12 -73 -40 -104 l-33 -36 -291 0 -291 0 -32 33 -33 32
-3 208 c-4 311 -15 301 358 302 223 0 259 -2 290 -18z m1017 -1 c68 -31 73
-51 73 -271 0 -212 -5 -235 -63 -270 -30 -18 -52 -20 -297 -20 -373 0 -363 -8
-358 305 3 190 3 194 28 220 47 51 66 54 330 54 220 1 249 -1 287 -18z m-3056
-876 c16 -9 39 -30 49 -48 18 -29 20 -51 20 -226 0 -296 6 -291 -368 -291
-278 0 -299 4 -337 70 -17 30 -20 57 -24 178 -5 205 2 247 49 294 l38 38 271
0 c226 0 277 -3 302 -15z m1051 -23 l33 -32 3 -208 c4 -311 14 -302 -360 -302
-228 0 -257 2 -288 19 -61 32 -73 66 -78 216 -6 183 3 257 36 296 14 17 35 35
46 40 12 4 146 7 298 6 l278 -2 32 -33z m1023 -3 c28 -31 34 -47 40 -104 4
-37 6 -127 3 -200 -5 -150 -17 -184 -78 -216 -31 -17 -60 -19 -288 -19 -374 0
-364 -8 -360 302 3 205 3 207 28 233 14 15 34 31 45 36 11 4 145 7 298 6 l279
-2 33 -36z m986 26 c16 -9 39 -30 49 -48 18 -29 20 -51 20 -225 0 -223 -5
-242 -73 -273 -37 -16 -68 -19 -277 -19 -129 0 -251 5 -271 10 -19 5 -48 24
-65 41 l-29 30 -3 194 c-4 218 3 250 60 285 31 19 50 20 296 20 218 0 268 -3
293 -15z"/>
<path d="M4230 5395 l0 -145 145 0 145 0 0 145 0 145 -145 0 -145 0 0 -145z"/>
<path d="M4810 5395 l0 -145 150 0 150 0 0 145 0 145 -150 0 -150 0 0 -145z"/>
</g>
</svg>
